<mxfile host="app.diagrams.net" modified="2022-11-02T09:43:51.578Z" agent="5.0 (Windows NT 10.0; Win64; x64) AppleWebKit/537.36 (KHTML, like Gecko) Chrome/106.0.0.0 Safari/537.36" etag="LLHgGhByCBt3bfqbm4HY" version="20.2.8" type="github">
  <diagram id="mD4rExLDaq35MiNyMCVW" name="第 1 页">
    <mxGraphModel dx="1886" dy="818" grid="1" gridSize="10" guides="1" tooltips="1" connect="1" arrows="1" fold="1" page="1" pageScale="1" pageWidth="1200" pageHeight="1600" math="0" shadow="0">
      <root>
        <mxCell id="0" />
        <mxCell id="1" parent="0" />
        <mxCell id="W41agP9IathKLNJRIBs5-1" value="" style="endArrow=block;html=1;rounded=0;strokeWidth=5;endFill=1;fillColor=#dae8fc;strokeColor=#6c8ebf;" edge="1" parent="1">
          <mxGeometry width="50" height="50" relative="1" as="geometry">
            <mxPoint x="153" y="630" as="sourcePoint" />
            <mxPoint x="153" y="80" as="targetPoint" />
          </mxGeometry>
        </mxCell>
        <mxCell id="W41agP9IathKLNJRIBs5-2" value="" style="endArrow=block;html=1;rounded=0;strokeWidth=5;endFill=1;fillColor=#dae8fc;strokeColor=#6c8ebf;" edge="1" parent="1">
          <mxGeometry width="50" height="50" relative="1" as="geometry">
            <mxPoint x="150" y="630" as="sourcePoint" />
            <mxPoint x="1070" y="630" as="targetPoint" />
          </mxGeometry>
        </mxCell>
        <mxCell id="W41agP9IathKLNJRIBs5-3" value="&lt;b&gt;&lt;font color=&quot;#ff8000&quot; style=&quot;font-size: 15px;&quot;&gt;6、熟练员工&lt;br&gt;&lt;/font&gt;&lt;/b&gt;&lt;br&gt;&lt;b&gt;特点：&lt;/b&gt;现职务绩效非常突出，但其潜力上的不足会限制其发展，是企业中的“老黄牛”&lt;br&gt;&lt;b&gt;&lt;font style=&quot;font-size: 13px;&quot;&gt;&lt;br&gt;培养：&lt;/font&gt;&lt;/b&gt;适当拓展其工作内容，同时给予支持；若其所在岗位有较大调整，需提前对其进行培训" style="rounded=0;whiteSpace=wrap;strokeWidth=4;fillColor=#dae8fc;strokeColor=#6c8ebf;shadow=0;sketch=0;fillStyle=auto;align=left;textDirection=ltr;spacingTop=0;spacing=10;spacingBottom=0;spacingRight=0;html=1;spacingLeft=0;" vertex="1" parent="1">
          <mxGeometry x="183" y="120" width="270" height="150" as="geometry" />
        </mxCell>
        <mxCell id="W41agP9IathKLNJRIBs5-4" value="绩&lt;br style=&quot;font-size: 23px;&quot;&gt;效" style="text;html=1;strokeColor=none;fillColor=none;align=center;verticalAlign=middle;whiteSpace=wrap;rounded=0;shadow=0;sketch=0;fillStyle=auto;strokeWidth=4;fontSize=23;fontColor=#6C8EBF;fontStyle=1" vertex="1" parent="1">
          <mxGeometry x="10" y="350" width="60" height="30" as="geometry" />
        </mxCell>
        <mxCell id="W41agP9IathKLNJRIBs5-5" value="高" style="text;html=1;strokeColor=none;fillColor=none;align=center;verticalAlign=middle;whiteSpace=wrap;rounded=0;shadow=0;sketch=0;fillStyle=auto;strokeWidth=4;fontSize=20;fontColor=#6C8EBF;fontStyle=1" vertex="1" parent="1">
          <mxGeometry x="80" y="170" width="60" height="30" as="geometry" />
        </mxCell>
        <mxCell id="W41agP9IathKLNJRIBs5-7" value="&lt;b&gt;&lt;font color=&quot;#ff8000&quot; style=&quot;font-size: 15px;&quot;&gt;6、熟练员工&lt;br&gt;&lt;/font&gt;&lt;/b&gt;&lt;br&gt;&lt;b&gt;特点：&lt;/b&gt;现职务绩效非常突出，但其潜力上的不足会限制其发展，是企业中的“老黄牛”&lt;br&gt;&lt;b&gt;&lt;font style=&quot;font-size: 13px;&quot;&gt;&lt;br&gt;培养：&lt;/font&gt;&lt;/b&gt;适当拓展其工作内容，同时给予支持；若其所在岗位有较大调整，需提前对其进行培训" style="rounded=0;whiteSpace=wrap;strokeWidth=4;fillColor=#dae8fc;strokeColor=#6c8ebf;shadow=0;sketch=0;fillStyle=auto;align=left;textDirection=ltr;spacingTop=0;spacing=10;spacingBottom=0;spacingRight=0;html=1;spacingLeft=0;" vertex="1" parent="1">
          <mxGeometry x="183" y="290" width="270" height="150" as="geometry" />
        </mxCell>
        <mxCell id="W41agP9IathKLNJRIBs5-8" value="&lt;b&gt;&lt;font color=&quot;#ff8000&quot; style=&quot;font-size: 15px;&quot;&gt;6、熟练员工&lt;br&gt;&lt;/font&gt;&lt;/b&gt;&lt;br&gt;&lt;b&gt;特点：&lt;/b&gt;现职务绩效非常突出，但其潜力上的不足会限制其发展，是企业中的“老黄牛”&lt;br&gt;&lt;b&gt;&lt;font style=&quot;font-size: 13px;&quot;&gt;&lt;br&gt;培养：&lt;/font&gt;&lt;/b&gt;适当拓展其工作内容，同时给予支持；若其所在岗位有较大调整，需提前对其进行培训" style="rounded=0;whiteSpace=wrap;strokeWidth=4;fillColor=#dae8fc;strokeColor=#6c8ebf;shadow=0;sketch=0;fillStyle=auto;align=left;textDirection=ltr;spacingTop=0;spacing=10;spacingBottom=0;spacingRight=0;html=1;spacingLeft=0;" vertex="1" parent="1">
          <mxGeometry x="183" y="460" width="270" height="150" as="geometry" />
        </mxCell>
        <mxCell id="W41agP9IathKLNJRIBs5-9" value="中" style="text;html=1;strokeColor=none;fillColor=none;align=center;verticalAlign=middle;whiteSpace=wrap;rounded=0;shadow=0;sketch=0;fillStyle=auto;strokeWidth=4;fontSize=20;fontColor=#6C8EBF;fontStyle=1" vertex="1" parent="1">
          <mxGeometry x="80" y="350" width="60" height="30" as="geometry" />
        </mxCell>
        <mxCell id="W41agP9IathKLNJRIBs5-10" value="低" style="text;html=1;strokeColor=none;fillColor=none;align=center;verticalAlign=middle;whiteSpace=wrap;rounded=0;shadow=0;sketch=0;fillStyle=auto;strokeWidth=4;fontSize=20;fontColor=#6C8EBF;fontStyle=1" vertex="1" parent="1">
          <mxGeometry x="80" y="510" width="60" height="30" as="geometry" />
        </mxCell>
        <mxCell id="W41agP9IathKLNJRIBs5-11" value="潜力" style="text;html=1;strokeColor=none;fillColor=none;align=center;verticalAlign=middle;whiteSpace=wrap;rounded=0;shadow=0;sketch=0;fillStyle=auto;strokeWidth=4;fontSize=23;fontColor=#6C8EBF;fontStyle=1" vertex="1" parent="1">
          <mxGeometry x="580" y="700" width="60" height="30" as="geometry" />
        </mxCell>
        <mxCell id="W41agP9IathKLNJRIBs5-12" value="突出" style="text;html=1;strokeColor=none;fillColor=none;align=center;verticalAlign=middle;whiteSpace=wrap;rounded=0;shadow=0;sketch=0;fillStyle=auto;strokeWidth=4;fontSize=20;fontColor=#6C8EBF;fontStyle=1" vertex="1" parent="1">
          <mxGeometry x="865" y="640" width="60" height="30" as="geometry" />
        </mxCell>
        <mxCell id="W41agP9IathKLNJRIBs5-13" value="一般" style="text;html=1;strokeColor=none;fillColor=none;align=center;verticalAlign=middle;whiteSpace=wrap;rounded=0;shadow=0;sketch=0;fillStyle=auto;strokeWidth=4;fontSize=20;fontColor=#6C8EBF;fontStyle=1" vertex="1" parent="1">
          <mxGeometry x="575" y="640" width="60" height="30" as="geometry" />
        </mxCell>
        <mxCell id="W41agP9IathKLNJRIBs5-14" value="待提升" style="text;html=1;strokeColor=none;fillColor=none;align=center;verticalAlign=middle;whiteSpace=wrap;rounded=0;shadow=0;sketch=0;fillStyle=auto;strokeWidth=4;fontSize=20;fontColor=#6C8EBF;fontStyle=1" vertex="1" parent="1">
          <mxGeometry x="270" y="640" width="80" height="30" as="geometry" />
        </mxCell>
        <mxCell id="W41agP9IathKLNJRIBs5-15" value="&lt;b&gt;&lt;font color=&quot;#ff8000&quot; style=&quot;font-size: 15px;&quot;&gt;6、熟练员工&lt;br&gt;&lt;/font&gt;&lt;/b&gt;&lt;br&gt;&lt;b&gt;特点：&lt;/b&gt;现职务绩效非常突出，但其潜力上的不足会限制其发展，是企业中的“老黄牛”&lt;br&gt;&lt;b&gt;&lt;font style=&quot;font-size: 13px;&quot;&gt;&lt;br&gt;培养：&lt;/font&gt;&lt;/b&gt;适当拓展其工作内容，同时给予支持；若其所在岗位有较大调整，需提前对其进行培训" style="rounded=0;whiteSpace=wrap;strokeWidth=4;fillColor=#dae8fc;strokeColor=#6c8ebf;shadow=0;sketch=0;fillStyle=auto;align=left;textDirection=ltr;spacingTop=0;spacing=10;spacingBottom=0;spacingRight=0;html=1;spacingLeft=0;" vertex="1" parent="1">
          <mxGeometry x="470" y="460" width="270" height="150" as="geometry" />
        </mxCell>
        <mxCell id="W41agP9IathKLNJRIBs5-16" value="&lt;b&gt;&lt;font color=&quot;#ff8000&quot; style=&quot;font-size: 15px;&quot;&gt;6、熟练员工&lt;br&gt;&lt;/font&gt;&lt;/b&gt;&lt;br&gt;&lt;b&gt;特点：&lt;/b&gt;现职务绩效非常突出，但其潜力上的不足会限制其发展，是企业中的“老黄牛”&lt;br&gt;&lt;b&gt;&lt;font style=&quot;font-size: 13px;&quot;&gt;&lt;br&gt;培养：&lt;/font&gt;&lt;/b&gt;适当拓展其工作内容，同时给予支持；若其所在岗位有较大调整，需提前对其进行培训" style="rounded=0;whiteSpace=wrap;strokeWidth=4;fillColor=#dae8fc;strokeColor=#6c8ebf;shadow=0;sketch=0;fillStyle=auto;align=left;textDirection=ltr;spacingTop=0;spacing=10;spacingBottom=0;spacingRight=0;html=1;spacingLeft=0;" vertex="1" parent="1">
          <mxGeometry x="470" y="290" width="270" height="150" as="geometry" />
        </mxCell>
        <mxCell id="W41agP9IathKLNJRIBs5-17" value="&lt;b&gt;&lt;font color=&quot;#ff8000&quot; style=&quot;font-size: 15px;&quot;&gt;6、熟练员工&lt;br&gt;&lt;/font&gt;&lt;/b&gt;&lt;br&gt;&lt;b&gt;特点：&lt;/b&gt;现职务绩效非常突出，但其潜力上的不足会限制其发展，是企业中的“老黄牛”&lt;br&gt;&lt;b&gt;&lt;font style=&quot;font-size: 13px;&quot;&gt;&lt;br&gt;培养：&lt;/font&gt;&lt;/b&gt;适当拓展其工作内容，同时给予支持；若其所在岗位有较大调整，需提前对其进行培训" style="rounded=0;whiteSpace=wrap;strokeWidth=4;fillColor=#dae8fc;strokeColor=#6c8ebf;shadow=0;sketch=0;fillStyle=auto;align=left;textDirection=ltr;spacingTop=0;spacing=10;spacingBottom=0;spacingRight=0;html=1;spacingLeft=0;" vertex="1" parent="1">
          <mxGeometry x="470" y="120" width="270" height="150" as="geometry" />
        </mxCell>
        <mxCell id="W41agP9IathKLNJRIBs5-18" value="&lt;b&gt;&lt;font color=&quot;#ff8000&quot; style=&quot;font-size: 15px;&quot;&gt;6、熟练员工&lt;br&gt;&lt;/font&gt;&lt;/b&gt;&lt;br&gt;&lt;b&gt;特点：&lt;/b&gt;现职务绩效非常突出，但其潜力上的不足会限制其发展，是企业中的“老黄牛”&lt;br&gt;&lt;b&gt;&lt;font style=&quot;font-size: 13px;&quot;&gt;&lt;br&gt;培养：&lt;/font&gt;&lt;/b&gt;适当拓展其工作内容，同时给予支持；若其所在岗位有较大调整，需提前对其进行培训" style="rounded=0;whiteSpace=wrap;strokeWidth=4;fillColor=#dae8fc;strokeColor=#6c8ebf;shadow=0;sketch=0;fillStyle=auto;align=left;textDirection=ltr;spacingTop=0;spacing=10;spacingBottom=0;spacingRight=0;html=1;spacingLeft=0;" vertex="1" parent="1">
          <mxGeometry x="760" y="120" width="270" height="150" as="geometry" />
        </mxCell>
        <mxCell id="W41agP9IathKLNJRIBs5-19" value="&lt;b&gt;&lt;font color=&quot;#ff8000&quot; style=&quot;font-size: 15px;&quot;&gt;6、熟练员工&lt;br&gt;&lt;/font&gt;&lt;/b&gt;&lt;br&gt;&lt;b&gt;特点：&lt;/b&gt;现职务绩效非常突出，但其潜力上的不足会限制其发展，是企业中的“老黄牛”&lt;br&gt;&lt;b&gt;&lt;font style=&quot;font-size: 13px;&quot;&gt;&lt;br&gt;培养：&lt;/font&gt;&lt;/b&gt;适当拓展其工作内容，同时给予支持；若其所在岗位有较大调整，需提前对其进行培训" style="rounded=0;whiteSpace=wrap;strokeWidth=4;fillColor=#dae8fc;strokeColor=#6c8ebf;shadow=0;sketch=0;fillStyle=auto;align=left;textDirection=ltr;spacingTop=0;spacing=10;spacingBottom=0;spacingRight=0;html=1;spacingLeft=0;" vertex="1" parent="1">
          <mxGeometry x="760" y="290" width="270" height="150" as="geometry" />
        </mxCell>
        <mxCell id="W41agP9IathKLNJRIBs5-20" value="&lt;b&gt;&lt;font color=&quot;#ff8000&quot; style=&quot;font-size: 15px;&quot;&gt;6、熟练员工&lt;br&gt;&lt;/font&gt;&lt;/b&gt;&lt;br&gt;&lt;b&gt;特点：&lt;/b&gt;现职务绩效非常突出，但其潜力上的不足会限制其发展，是企业中的“老黄牛”&lt;br&gt;&lt;b&gt;&lt;font style=&quot;font-size: 13px;&quot;&gt;&lt;br&gt;培养：&lt;/font&gt;&lt;/b&gt;适当拓展其工作内容，同时给予支持；若其所在岗位有较大调整，需提前对其进行培训" style="rounded=0;whiteSpace=wrap;strokeWidth=4;fillColor=#dae8fc;strokeColor=#6c8ebf;shadow=0;sketch=0;fillStyle=auto;align=left;textDirection=ltr;spacingTop=0;spacing=10;spacingBottom=0;spacingRight=0;html=1;spacingLeft=0;" vertex="1" parent="1">
          <mxGeometry x="760" y="460" width="270" height="150" as="geometry" />
        </mxCell>
      </root>
    </mxGraphModel>
  </diagram>
</mxfile>
